<?xml version="1.0" encoding="UTF-8"?>
<svg width="250" height="50" viewBox="0 0 300 25" xmlns="http://www.w3.org/2000/svg">
    <!-- Generator: Sketch 55.2 (78181) - https://sketchapp.com -->
    <title>Logo</title>
    <desc>Created with Sketch.</desc>
    <g id="svgGroup" stroke-linecap="round" fill-rule="evenodd" font-size="9pt" stroke="#ffffff" stroke-width="0.25mm" fill="#ffffff" style="stroke:#ffffff;stroke-width:0.25mm;fill:#ffffff">
        <g id="Home" transform="translate(-250.000000, -50.000000)" fill="#FFFFFF" fill-rule="nonzero">
            <g id="Logo" transform="translate(250.000000, 50.000000)">
                <g id="noun_Running_1473810" transform="translate(224.890323, 0.000000)">
                    <g id="Group">
                        <path d="M17.6410822,30.9272727 C17.6410822,30.4363636 17.3113424,30.1090909 16.8167326,30.1090909 L2.47304891,30.1090909 C1.97843913,30.1090909 1.64869927,30.4363636 1.64869927,30.9272727 C1.64869927,31.4181818 1.97843913,31.7454545 2.47304891,31.7454545 L16.8167326,31.7454545 C17.3113424,31.7454545 17.6410822,31.3363636 17.6410822,30.9272727 Z" id="Path"></path>
                        <path d="M5.77044745,34.2 L4.12174818,34.2 C3.6271384,34.2 3.29739854,34.5272727 3.29739854,35.0181818 C3.29739854,35.5090909 3.6271384,35.8363636 4.12174818,35.8363636 L5.77044745,35.8363636 C6.26505723,35.8363636 6.59479709,35.5090909 6.59479709,35.0181818 C6.59479709,34.5272727 6.26505723,34.2 5.77044745,34.2 Z" id="Path"></path>
                        <path d="M9.64489074,26.8363636 C9.64489074,26.3454545 9.31515088,26.0181818 8.8205411,26.0181818 L0.824349636,26.0181818 C0.329739854,26.0181818 0,26.3454545 0,26.8363636 C0,27.3272727 0.329739854,27.6545455 0.824349636,27.6545455 L8.8205411,27.6545455 C9.31515088,27.6545455 9.64489074,27.2454545 9.64489074,26.8363636 Z" id="Path"></path>
                        <path d="M50.6150676,28.2272727 C50.3677627,27.7363636 49.873153,27.3272727 49.3785432,27.0818182 L43.113486,24.7090909 L43.113486,24.7090909 L43.113486,24.7090909 L40.5580021,23.8090909 C39.8160874,23.4818182 39.1566077,22.9909091 38.7444329,22.3363636 L36.6011238,18.8181818 C37.0132986,18.7363636 37.2606035,18.4090909 37.2606035,18 C37.2606035,17.5090909 36.9308637,17.1818182 36.4362539,17.1818182 L35.6119043,17.1818182 L34.6226847,15.5454545 C35.0348595,15.4636364 35.2821644,15.1363636 35.2821644,14.7272727 C35.2821644,14.2363636 34.9524246,13.9090909 34.4578148,13.9090909 L33.6334651,13.9090909 L32.8091155,12.6 C33.1388554,12.5181818 33.3861602,12.1909091 33.3861602,11.8636364 C33.3861602,11.3727273 33.0564204,11.0454545 32.5618106,11.0454545 L31.8198959,11.0454545 L30.7482414,9.32727273 C30.7482414,9.32727273 30.7482414,9.24545455 30.6658065,9.24545455 C29.6765869,8.1 28.3576275,7.52727273 26.9562331,7.69090909 C25.7197086,7.85454545 24.7304891,8.59090909 24.3183143,9.49090909 C24.2358793,9.73636364 24.2358793,9.98181818 24.4007492,10.2272727 L31.2428512,21.8454545 C31.3252862,22.0090909 31.4901561,22.1727273 31.655026,22.1727273 L40.0633923,25.3636364 L40.1458273,25.3636364 L42.6188762,26.2636364 L42.6188762,26.2636364 L42.6188762,26.2636364 L42.6188762,26.2636364 L42.6188762,26.2636364 L42.6188762,26.2636364 L48.8014984,28.6363636 C48.9663684,28.7181818 49.1312383,28.8 49.2136733,29.0454545 C49.5434131,29.7 49.5434131,30.3545455 49.1312383,31.0090909 L35.6943392,31.0090909 C34.8699896,31.0090909 34.04564,30.7636364 33.3861602,30.2727273 L10.3868054,13.3363636 C10.3868054,13.3363636 10.7165453,13.1727273 11.1287201,12.6 C11.5408949,12.0272727 11.7057648,11.2909091 11.7057648,10.5545455 L10.9638502,3.68181818 L11.9530697,2.12727273 C12.2003746,1.8 12.6949844,1.71818182 13.0247242,1.96363636 C13.2720291,2.20909091 14.2612487,3.02727273 16.6518626,6.87272727 C17.8883871,8.67272727 19.8668262,9.98181818 22.0925702,10.3090909 C22.5047451,10.3909091 22.9993548,10.0636364 23.0817898,9.65454545 C23.1642248,9.24545455 22.8344849,8.75454545 22.4223101,8.67272727 C20.6911759,8.34545455 19.0424766,7.36363636 18.053257,5.89090909 C15.1680333,1.47272727 14.3436837,0.818181818 14.0139438,0.572727273 C12.9422893,-0.163636364 11.4584599,0.0818181818 10.6341103,1.14545455 L5.60557752,9.08181818 C5.27583767,9.57272727 5.19340271,10.1454545 5.27583767,10.7181818 C4.78122789,10.8818182 4.28661811,11.1272727 4.03931322,11.6181818 L2.7203538,13.6636364 C1.97843913,14.7272727 2.30817898,16.2 3.37983351,16.9363636 C4.12174818,17.5090909 5.68801249,18.4909091 7.99619147,19.9636364 C8.16106139,20.0454545 8.32593132,20.1272727 8.40836629,20.1272727 C8.65567118,20.1272727 8.90297607,19.9636364 9.06784599,19.7181818 C9.31515088,19.3090909 9.23271592,18.8181818 8.8205411,18.5727273 C6.59479709,17.1 5.02853278,16.1181818 4.28661811,15.5454545 C3.95687825,15.3 3.87444329,14.8909091 4.12174818,14.4818182 L5.35827263,12.6 C5.60557752,12.2727273 6.1001873,12.1909091 6.42992716,12.4363636 L6.42992716,12.4363636 L32.3145057,31.5818182 C33.3037253,32.3181818 34.4578148,32.6454545 35.6119043,32.6454545 L46.9879292,32.6454545 C45.256795,33.4636364 42.8661811,34.2 40.805307,34.2 L40.805307,34.2 L37.9200832,34.2 L35.5294693,34.2 L35.5294693,34.2 C34.1280749,34.2 32.7266805,33.7909091 31.5725911,33.0545455 C26.7913632,30.0272727 17.8883871,24.3818182 11.376025,20.2090909 C10.9638502,19.9636364 10.4692404,20.0454545 10.2219355,20.4545455 C9.97463059,20.8636364 10.0570656,21.3545455 10.4692404,21.6 C16.8167326,25.6909091 25.4724037,31.1727273 30.3360666,34.2818182 L9.06784599,34.2818182 C8.57323621,34.2818182 8.24349636,34.6090909 8.24349636,35.1 C8.24349636,35.5909091 8.57323621,35.9181818 9.06784599,35.9181818 L35.5294693,35.9181818 L35.5294693,35.9181818 L37.9200832,35.9181818 L40.722872,35.9181818 L40.722872,35.9181818 C44.1027055,35.9181818 48.9663684,34.1181818 50.2028928,32.4 C51.2745473,30.9272727 51.3569823,29.5363636 50.6150676,28.2272727 Z M32.3969407,20.8636364 L25.9670135,9.98181818 C26.2143184,9.73636364 26.6264932,9.49090909 27.121103,9.40909091 C27.6157128,9.32727273 28.5224974,9.40909091 29.346847,10.3090909 L29.8414568,11.1272727 L29.0995421,11.1272727 C28.6049324,11.1272727 28.2751925,11.4545455 28.2751925,11.9454545 C28.2751925,12.4363636 28.6049324,12.7636364 29.0995421,12.7636364 L30.8306764,12.7636364 L31.655026,14.0727273 L30.9955463,14.0727273 C30.5009365,14.0727273 30.1711967,14.4 30.1711967,14.8909091 C30.1711967,15.3818182 30.5009365,15.7090909 30.9955463,15.7090909 L32.6442456,15.7090909 L33.6334651,17.2636364 L32.9739854,17.2636364 C32.4793757,17.2636364 32.1496358,17.5909091 32.1496358,18.0818182 C32.1496358,18.5727273 32.4793757,18.9 32.9739854,18.9 L34.6226847,18.9 L36.9308637,22.5 L32.3969407,20.8636364 Z M7.0069719,9.98181818 L9.56245578,5.97272727 L10.0570656,10.7181818 C10.0570656,11.0454545 9.97463059,11.3727273 9.80976067,11.6181818 C9.64489074,11.8636364 9.31515088,12.5181818 8.57323621,11.9454545 C8.57323621,11.9454545 8.16106139,11.7 7.41914672,11.1272727 C6.92453694,10.7181818 6.84210198,10.3090909 7.0069719,9.98181818 Z" id="Shape"></path>
                    </g>
                </g>
                <path d="M 30.7 1.125 L 34.975 1.125 L 34.975 18.675 L 30.7 18.675 L 30.7 11.45 L 24.05 11.45 L 24.05 18.675 L 19.775 18.675 L 19.775 1.125 L 24.05 1.125 L 24.05 8 L 30.7 8 L 30.7 1.125 Z M 134.025 1.125 L 138.3 1.125 L 138.3 18.675 L 134.025 18.675 L 134.025 11.45 L 127.375 11.45 L 127.375 18.675 L 123.1 18.675 L 123.1 1.125 L 127.375 1.125 L 127.375 8 L 134.025 8 L 134.025 1.125 Z M 105.575 18.675 L 100.6 18.675 L 97.025 13.3 L 93.875 18.675 L 89.025 18.675 L 94.65 9.75 L 88.9 1.125 L 93.875 1.125 L 97.4 6.425 L 100.5 1.125 L 105.35 1.125 L 99.775 9.975 L 105.575 18.675 Z M 17.15 7.075 L 12.45 7.075 A 4.063 4.063 0 0 0 11.721 6.004 A 3.609 3.609 0 0 0 10.963 5.4 A 4.082 4.082 0 0 0 9.152 4.839 A 4.974 4.974 0 0 0 8.775 4.825 A 4.601 4.601 0 0 0 7.216 5.079 A 3.96 3.96 0 0 0 5.575 6.2 A 4.674 4.674 0 0 0 4.524 8.273 Q 4.356 8.985 4.35 9.821 A 8.575 8.575 0 0 0 4.35 9.875 A 7.02 7.02 0 0 0 4.508 11.409 Q 4.76 12.531 5.41 13.353 A 4.408 4.408 0 0 0 5.575 13.55 A 4.033 4.033 0 0 0 8.524 14.919 A 5.473 5.473 0 0 0 8.775 14.925 Q 10 14.925 10.963 14.35 A 3.722 3.722 0 0 0 12.312 12.942 A 4.586 4.586 0 0 0 12.45 12.675 L 17.15 12.675 A 8.378 8.378 0 0 1 15.889 15.43 A 7.655 7.655 0 0 1 14.175 17.163 A 8.383 8.383 0 0 1 10.149 18.722 A 10.9 10.9 0 0 1 8.825 18.8 A 9.782 9.782 0 0 1 6.056 18.42 A 8.5 8.5 0 0 1 4.263 17.663 Q 2.25 16.525 1.125 14.5 A 8.963 8.963 0 0 1 0.062 11.062 A 11.159 11.159 0 0 1 0 9.875 A 10.267 10.267 0 0 1 0.346 7.164 A 8.712 8.712 0 0 1 1.125 5.238 Q 2.25 3.2 4.263 2.063 A 8.832 8.832 0 0 1 7.888 0.965 A 10.802 10.802 0 0 1 8.825 0.925 A 9.894 9.894 0 0 1 11.557 1.288 A 8.097 8.097 0 0 1 14.175 2.575 A 7.869 7.869 0 0 1 17.077 6.811 A 9.846 9.846 0 0 1 17.15 7.075 Z M 107.225 13.425 L 111.775 13.425 A 2.987 2.987 0 0 0 111.904 14.053 Q 112.039 14.465 112.297 14.758 A 1.783 1.783 0 0 0 112.45 14.913 A 1.979 1.979 0 0 0 113.405 15.375 A 2.82 2.82 0 0 0 113.95 15.425 Q 114.666 15.425 115.154 15.177 A 1.738 1.738 0 0 0 115.45 14.988 A 1.425 1.425 0 0 0 115.993 13.946 A 2.032 2.032 0 0 0 116 13.775 Q 116 13.125 115.563 12.7 A 3.319 3.319 0 0 0 114.867 12.187 A 4.099 4.099 0 0 0 114.488 12 A 8.761 8.761 0 0 0 114.135 11.858 Q 113.692 11.689 113.072 11.496 A 32.752 32.752 0 0 0 112.675 11.375 A 28.477 28.477 0 0 1 111.534 10.998 Q 111.002 10.809 110.552 10.619 A 12.642 12.642 0 0 1 109.9 10.325 A 5.066 5.066 0 0 1 108.198 8.963 A 5.965 5.965 0 0 1 108.05 8.775 Q 107.323 7.813 107.278 6.302 A 6.785 6.785 0 0 1 107.275 6.1 A 5.414 5.414 0 0 1 107.541 4.364 A 4.414 4.414 0 0 1 109.05 2.263 Q 110.825 0.875 113.675 0.875 Q 116.111 0.875 117.753 1.854 A 5.743 5.743 0 0 1 118.35 2.263 A 4.848 4.848 0 0 1 120.203 5.596 A 6.761 6.761 0 0 1 120.25 6.125 L 115.625 6.125 Q 115.575 5.275 115 4.788 A 2.015 2.015 0 0 0 114.056 4.348 A 2.83 2.83 0 0 0 113.525 4.3 A 2.369 2.369 0 0 0 112.986 4.358 A 1.63 1.63 0 0 0 112.275 4.713 A 1.335 1.335 0 0 0 111.847 5.449 A 2.048 2.048 0 0 0 111.8 5.9 A 1.411 1.411 0 0 0 112.308 7.017 A 2.028 2.028 0 0 0 112.6 7.225 A 6.214 6.214 0 0 0 113.121 7.498 Q 113.701 7.771 114.553 8.067 A 27.331 27.331 0 0 0 115.1 8.25 A 34.15 34.15 0 0 1 116.194 8.64 Q 116.68 8.823 117.097 9 A 14.987 14.987 0 0 1 117.863 9.35 A 5.215 5.215 0 0 1 119.59 10.737 A 6.078 6.078 0 0 1 119.7 10.875 A 3.579 3.579 0 0 1 120.355 12.297 Q 120.475 12.829 120.475 13.45 Q 120.475 14.95 119.713 16.175 Q 118.95 17.4 117.5 18.125 A 6.686 6.686 0 0 1 115.648 18.721 A 9.152 9.152 0 0 1 114.075 18.85 A 10.165 10.165 0 0 1 112.17 18.679 A 8.025 8.025 0 0 1 110.625 18.225 A 5.907 5.907 0 0 1 108.958 17.209 A 5.366 5.366 0 0 1 108.188 16.375 A 4.829 4.829 0 0 1 107.29 14.168 A 6.225 6.225 0 0 1 107.225 13.425 Z M 174.05 13.425 L 178.6 13.425 A 2.987 2.987 0 0 0 178.729 14.053 Q 178.864 14.465 179.122 14.758 A 1.783 1.783 0 0 0 179.275 14.913 A 1.979 1.979 0 0 0 180.23 15.375 A 2.82 2.82 0 0 0 180.775 15.425 Q 181.491 15.425 181.979 15.177 A 1.738 1.738 0 0 0 182.275 14.988 A 1.425 1.425 0 0 0 182.818 13.946 A 2.032 2.032 0 0 0 182.825 13.775 Q 182.825 13.125 182.388 12.7 A 3.319 3.319 0 0 0 181.692 12.187 A 4.099 4.099 0 0 0 181.313 12 A 8.761 8.761 0 0 0 180.96 11.858 Q 180.517 11.689 179.897 11.496 A 32.752 32.752 0 0 0 179.5 11.375 A 28.477 28.477 0 0 1 178.359 10.998 Q 177.827 10.809 177.377 10.619 A 12.642 12.642 0 0 1 176.725 10.325 A 5.066 5.066 0 0 1 175.023 8.963 A 5.965 5.965 0 0 1 174.875 8.775 Q 174.148 7.813 174.103 6.302 A 6.785 6.785 0 0 1 174.1 6.1 A 5.414 5.414 0 0 1 174.366 4.364 A 4.414 4.414 0 0 1 175.875 2.263 Q 177.65 0.875 180.5 0.875 Q 182.936 0.875 184.578 1.854 A 5.743 5.743 0 0 1 185.175 2.263 A 4.848 4.848 0 0 1 187.028 5.596 A 6.761 6.761 0 0 1 187.075 6.125 L 182.45 6.125 Q 182.4 5.275 181.825 4.788 A 2.015 2.015 0 0 0 180.881 4.348 A 2.83 2.83 0 0 0 180.35 4.3 A 2.369 2.369 0 0 0 179.811 4.358 A 1.63 1.63 0 0 0 179.1 4.713 A 1.335 1.335 0 0 0 178.672 5.449 A 2.048 2.048 0 0 0 178.625 5.9 A 1.411 1.411 0 0 0 179.133 7.017 A 2.028 2.028 0 0 0 179.425 7.225 A 6.214 6.214 0 0 0 179.946 7.498 Q 180.526 7.771 181.378 8.067 A 27.331 27.331 0 0 0 181.925 8.25 A 34.15 34.15 0 0 1 183.019 8.64 Q 183.505 8.823 183.922 9 A 14.987 14.987 0 0 1 184.688 9.35 A 5.215 5.215 0 0 1 186.415 10.737 A 6.078 6.078 0 0 1 186.525 10.875 A 3.579 3.579 0 0 1 187.18 12.297 Q 187.3 12.829 187.3 13.45 Q 187.3 14.95 186.538 16.175 Q 185.775 17.4 184.325 18.125 A 6.686 6.686 0 0 1 182.473 18.721 A 9.152 9.152 0 0 1 180.9 18.85 A 10.165 10.165 0 0 1 178.995 18.679 A 8.025 8.025 0 0 1 177.45 18.225 A 5.907 5.907 0 0 1 175.783 17.209 A 5.366 5.366 0 0 1 175.013 16.375 A 4.829 4.829 0 0 1 174.115 14.168 A 6.225 6.225 0 0 1 174.05 13.425 Z M 83.85 9.05 L 83.85 9.15 A 4.866 4.866 0 0 1 85.228 9.856 A 4.275 4.275 0 0 1 86.1 10.725 A 3.98 3.98 0 0 1 86.786 12.24 Q 86.917 12.805 86.925 13.462 A 7.116 7.116 0 0 1 86.925 13.55 A 5.729 5.729 0 0 1 86.724 15.095 A 4.828 4.828 0 0 1 86.213 16.288 A 4.741 4.741 0 0 1 84.548 17.927 A 5.867 5.867 0 0 1 84.138 18.15 A 6.294 6.294 0 0 1 82.443 18.696 A 8.759 8.759 0 0 1 80.9 18.825 A 9.902 9.902 0 0 1 78.921 18.639 Q 77.265 18.301 76.113 17.35 A 4.915 4.915 0 0 1 74.538 14.921 Q 74.263 14.016 74.225 12.9 L 78.375 12.9 Q 78.398 13.901 78.897 14.519 A 2.07 2.07 0 0 0 79 14.638 Q 79.554 15.226 80.575 15.271 A 3.925 3.925 0 0 0 80.75 15.275 A 2.709 2.709 0 0 0 81.369 15.209 Q 81.91 15.082 82.263 14.713 A 1.902 1.902 0 0 0 82.757 13.723 A 2.714 2.714 0 0 0 82.8 13.225 A 2.974 2.974 0 0 0 82.733 12.571 Q 82.574 11.866 82.038 11.488 Q 81.347 11.001 79.907 10.955 A 9.66 9.66 0 0 0 79.6 10.95 L 78.8 10.95 L 78.8 7.475 L 79.6 7.475 Q 80.875 7.475 81.663 7.038 A 1.458 1.458 0 0 0 82.391 6.039 A 2.519 2.519 0 0 0 82.45 5.475 Q 82.45 4.715 82.093 4.24 A 1.548 1.548 0 0 0 81.95 4.075 A 1.654 1.654 0 0 0 81.132 3.634 A 2.481 2.481 0 0 0 80.575 3.575 A 2.486 2.486 0 0 0 80.029 3.631 Q 79.481 3.755 79.163 4.15 A 2.414 2.414 0 0 0 78.699 5.116 A 3.17 3.17 0 0 0 78.625 5.575 L 74.45 5.575 A 7.231 7.231 0 0 1 74.712 3.846 A 4.92 4.92 0 0 1 76.2 1.45 A 5.567 5.567 0 0 1 78.501 0.258 Q 79.483 0 80.675 0 A 9.061 9.061 0 0 1 82.162 0.116 Q 83.114 0.274 83.888 0.65 A 5.243 5.243 0 0 1 85.078 1.433 A 4.343 4.343 0 0 1 85.913 2.425 A 4.718 4.718 0 0 1 86.599 4.819 A 5.624 5.624 0 0 1 86.6 4.95 A 5.407 5.407 0 0 1 86.484 6.101 Q 86.291 6.989 85.775 7.638 A 4.72 4.72 0 0 1 84.911 8.487 A 3.824 3.824 0 0 1 83.85 9.05 Z M 171.775 4.55 L 165.3 4.55 L 165.3 8.1 L 171.025 8.1 L 171.025 11.4 L 165.3 11.4 L 165.3 15.25 L 171.775 15.25 L 171.775 18.675 L 161.025 18.675 L 161.025 1.125 L 171.775 1.125 L 171.775 4.55 Z M 68.425 1.125 L 72.95 1.125 L 66.725 18.675 L 61.375 18.675 L 55.15 1.125 L 59.7 1.125 L 64.05 14.375 L 68.425 1.125 Z M 50.025 18.675 L 48.975 15.575 L 42.425 15.575 L 41.375 18.675 L 36.9 18.675 L 43.25 1.125 L 48.2 1.125 L 54.55 18.675 L 50.025 18.675 Z M 149.675 18.85 Q 147.2 18.85 145.138 17.7 Q 143.075 16.55 141.863 14.488 A 8.862 8.862 0 0 1 140.661 10.328 A 10.643 10.643 0 0 1 140.65 9.85 A 9.37 9.37 0 0 1 141.124 6.836 A 8.481 8.481 0 0 1 141.863 5.225 Q 143.075 3.175 145.138 2.025 Q 147.2 0.875 149.675 0.875 Q 152.15 0.875 154.213 2.025 Q 156.275 3.175 157.463 5.225 A 8.884 8.884 0 0 1 158.63 9.195 A 10.75 10.75 0 0 1 158.65 9.85 A 9.504 9.504 0 0 1 158.181 12.869 A 8.624 8.624 0 0 1 157.45 14.488 Q 156.25 16.55 154.2 17.7 A 9.082 9.082 0 0 1 149.714 18.85 A 10.661 10.661 0 0 1 149.675 18.85 Z M 149.675 14.95 Q 151.775 14.95 153.038 13.55 A 4.773 4.773 0 0 0 154.151 11.325 A 6.919 6.919 0 0 0 154.3 9.85 A 6.962 6.962 0 0 0 154.137 8.3 Q 153.853 7.056 153.075 6.179 A 4.49 4.49 0 0 0 153.038 6.138 A 4.172 4.172 0 0 0 150.311 4.784 A 5.809 5.809 0 0 0 149.675 4.75 A 5.305 5.305 0 0 0 148.161 4.956 A 4.069 4.069 0 0 0 146.288 6.125 Q 145.055 7.467 145.026 9.738 A 8.618 8.618 0 0 0 145.025 9.85 A 6.962 6.962 0 0 0 145.188 11.4 Q 145.472 12.644 146.25 13.521 A 4.49 4.49 0 0 0 146.288 13.563 Q 147.55 14.95 149.675 14.95 Z M 43.55 12.275 L 47.875 12.275 L 45.7 5.85 L 43.55 12.275 Z" vector-effect="non-scaling-stroke" />
            </g>
        </g>
    </g>
</svg>